<?xml version="1.0" encoding="UTF-8" standalone="no"?>
<!-- Created with Inkscape (http://www.inkscape.org/) -->

<svg
   xmlns:dc="http://purl.org/dc/elements/1.1/"
   xmlns:cc="http://creativecommons.org/ns#"
   xmlns:rdf="http://www.w3.org/1999/02/22-rdf-syntax-ns#"
   xmlns:svg="http://www.w3.org/2000/svg"
   xmlns="http://www.w3.org/2000/svg"
   xmlns:sodipodi="http://sodipodi.sourceforge.net/DTD/sodipodi-0.dtd"
   xmlns:inkscape="http://www.inkscape.org/namespaces/inkscape"
   width="744.09003"
   height="744.09003"
   id="svg2"
   version="1.1"
   inkscape:version="0.48.0 r9654"
   sodipodi:docname="logo-no-text.svg"
   inkscape:export-filename="/home/seb/2010/Ray/trunk/logo/logo.png"
   inkscape:export-xdpi="90"
   inkscape:export-ydpi="90">
  <defs
     id="defs4">
    <inkscape:perspective
       sodipodi:type="inkscape:persp3d"
       inkscape:vp_x="0 : 526.18109 : 1"
       inkscape:vp_y="0 : 1000 : 0"
       inkscape:vp_z="744.09448 : 526.18109 : 1"
       inkscape:persp3d-origin="372.04724 : 350.78739 : 1"
       id="perspective10" />
    <inkscape:perspective
       id="perspective2834"
       inkscape:persp3d-origin="0.5 : 0.33333333 : 1"
       inkscape:vp_z="1 : 0.5 : 1"
       inkscape:vp_y="0 : 1000 : 0"
       inkscape:vp_x="0 : 0.5 : 1"
       sodipodi:type="inkscape:persp3d" />
    <inkscape:perspective
       id="perspective2834-0"
       inkscape:persp3d-origin="0.5 : 0.33333333 : 1"
       inkscape:vp_z="1 : 0.5 : 1"
       inkscape:vp_y="0 : 1000 : 0"
       inkscape:vp_x="0 : 0.5 : 1"
       sodipodi:type="inkscape:persp3d" />
    <inkscape:perspective
       id="perspective2834-7"
       inkscape:persp3d-origin="0.5 : 0.33333333 : 1"
       inkscape:vp_z="1 : 0.5 : 1"
       inkscape:vp_y="0 : 1000 : 0"
       inkscape:vp_x="0 : 0.5 : 1"
       sodipodi:type="inkscape:persp3d" />
    <inkscape:perspective
       id="perspective2904"
       inkscape:persp3d-origin="0.5 : 0.33333333 : 1"
       inkscape:vp_z="1 : 0.5 : 1"
       inkscape:vp_y="0 : 1000 : 0"
       inkscape:vp_x="0 : 0.5 : 1"
       sodipodi:type="inkscape:persp3d" />
    <inkscape:perspective
       id="perspective2926"
       inkscape:persp3d-origin="0.5 : 0.33333333 : 1"
       inkscape:vp_z="1 : 0.5 : 1"
       inkscape:vp_y="0 : 1000 : 0"
       inkscape:vp_x="0 : 0.5 : 1"
       sodipodi:type="inkscape:persp3d" />
    <inkscape:perspective
       id="perspective2948"
       inkscape:persp3d-origin="0.5 : 0.33333333 : 1"
       inkscape:vp_z="1 : 0.5 : 1"
       inkscape:vp_y="0 : 1000 : 0"
       inkscape:vp_x="0 : 0.5 : 1"
       sodipodi:type="inkscape:persp3d" />
    <inkscape:perspective
       id="perspective2970"
       inkscape:persp3d-origin="0.5 : 0.33333333 : 1"
       inkscape:vp_z="1 : 0.5 : 1"
       inkscape:vp_y="0 : 1000 : 0"
       inkscape:vp_x="0 : 0.5 : 1"
       sodipodi:type="inkscape:persp3d" />
    <inkscape:perspective
       id="perspective2856"
       inkscape:persp3d-origin="0.5 : 0.33333333 : 1"
       inkscape:vp_z="1 : 0.5 : 1"
       inkscape:vp_y="0 : 1000 : 0"
       inkscape:vp_x="0 : 0.5 : 1"
       sodipodi:type="inkscape:persp3d" />
  </defs>
  <sodipodi:namedview
     id="base"
     pagecolor="#ffffff"
     bordercolor="#666666"
     borderopacity="1.0"
     inkscape:pageopacity="0.0"
     inkscape:pageshadow="2"
     inkscape:zoom="0.70735156"
     inkscape:cx="372"
     inkscape:cy="517.42311"
     inkscape:document-units="px"
     inkscape:current-layer="layer1"
     showgrid="false"
     inkscape:window-width="1920"
     inkscape:window-height="1003"
     inkscape:window-x="0"
     inkscape:window-y="24"
     inkscape:window-maximized="1"
     units="mm" />
  <metadata
     id="metadata7">
    <rdf:RDF>
      <cc:Work
         rdf:about="">
        <dc:format>image/svg+xml</dc:format>
        <dc:type
           rdf:resource="http://purl.org/dc/dcmitype/StillImage" />
        <dc:title />
      </cc:Work>
    </rdf:RDF>
  </metadata>
  <g
     inkscape:label="Layer 1"
     inkscape:groupmode="layer"
     id="layer1"
     transform="translate(0,-308.27208)">
    <rect
       style="fill:#ffffff;stroke:none;stroke-width:1.72976219999999992;stroke-miterlimit:10;stroke-opacity:1;stroke-dasharray:none"
       id="rect2846"
       width="742.27026"
       height="742.27026"
       x="0.8648811"
       y="309.22696" />
    <flowRoot
       xml:space="preserve"
       id="flowRoot2816"
       style="font-size:40px;font-style:normal;font-weight:normal;fill:#000000;fill-opacity:1;stroke:none;font-family:Bitstream Vera Sans"
       transform="matrix(3.3815486,0,0,3.3815486,-118.76196,27.760998)"><flowRegion
         id="flowRegion2818"><rect
           id="rect2820"
           width="687.66461"
           height="467.75156"
           x="41.888199"
           y="102.96787" /></flowRegion><flowPara
         id="flowPara2822"
         style="font-size:144px;font-style:normal;font-variant:normal;font-weight:300;font-stretch:normal;font-family:AR PL UMing CN;-inkscape-font-specification:AR PL UMing CN Light">Ray</flowPara></flowRoot>    <path
       sodipodi:type="arc"
       style="opacity:0.47779996;fill:#ff0000;stroke:#000000;stroke-width:3;stroke-miterlimit:10;stroke-opacity:1;stroke-dasharray:none"
       id="path2824"
       sodipodi:cx="141.95445"
       sodipodi:cy="573.04657"
       sodipodi:rx="74.467911"
       sodipodi:ry="74.467911"
       d="m 216.42236,573.04657 c 0,41.12749 -33.34042,74.46791 -74.46791,74.46791 -41.12749,0 -74.467908,-33.34042 -74.467908,-74.46791 0,-41.12749 33.340418,-74.46791 74.467908,-74.46791 41.12749,0 74.46791,33.34042 74.46791,74.46791 z"
       transform="matrix(0.68601214,0,0,0.68601214,41.086597,249.45942)" />
    <path
       sodipodi:type="arc"
       style="opacity:0.47779996;fill:#00ff00;stroke:#000000;stroke-width:3;stroke-miterlimit:10;stroke-opacity:1;stroke-dasharray:none"
       id="path2824-0"
       sodipodi:cx="141.95445"
       sodipodi:cy="573.04657"
       sodipodi:rx="74.467911"
       sodipodi:ry="74.467911"
       d="m 216.42236,573.04657 c 0,41.12749 -33.34042,74.46791 -74.46791,74.46791 -41.12749,0 -74.467908,-33.34042 -74.467908,-74.46791 0,-41.12749 33.340418,-74.46791 74.467908,-74.46791 41.12749,0 74.46791,33.34042 74.46791,74.46791 z"
       transform="matrix(0.68601214,0,0,0.68601214,246.45511,286.11156)" />
    <path
       sodipodi:type="arc"
       style="opacity:0.47779996;fill:#ff00ff;stroke:#000000;stroke-width:3;stroke-miterlimit:10;stroke-opacity:1;stroke-dasharray:none"
       id="path2824-1"
       sodipodi:cx="141.95445"
       sodipodi:cy="573.04657"
       sodipodi:rx="74.467911"
       sodipodi:ry="74.467911"
       d="m 216.42236,573.04657 c 0,41.12749 -33.34042,74.46791 -74.46791,74.46791 -41.12749,0 -74.467908,-33.34042 -74.467908,-74.46791 0,-41.12749 33.340418,-74.46791 74.467908,-74.46791 41.12749,0 74.46791,33.34042 74.46791,74.46791 z"
       transform="matrix(0.68601214,0,0,0.68601214,474.0135,272.66262)" />
    <path
       sodipodi:type="arc"
       style="opacity:0.47779996;fill:#0000ff;stroke:#000000;stroke-width:3;stroke-miterlimit:10;stroke-opacity:1;stroke-dasharray:none"
       id="path2824-5"
       sodipodi:cx="141.95445"
       sodipodi:cy="573.04657"
       sodipodi:rx="74.467911"
       sodipodi:ry="74.467911"
       d="m 216.42236,573.04657 c 0,41.12749 -33.34042,74.46791 -74.46791,74.46791 -41.12749,0 -74.467908,-33.34042 -74.467908,-74.46791 0,-41.12749 33.340418,-74.46791 74.467908,-74.46791 41.12749,0 74.46791,33.34042 74.46791,74.46791 z"
       transform="matrix(0.68601214,0,0,0.68601214,481.49446,506.02459)" />
    <path
       sodipodi:type="arc"
       style="opacity:0.47779996;fill:#ff0000;stroke:#000000;stroke-width:3;stroke-miterlimit:10;stroke-opacity:1;stroke-dasharray:none"
       id="path2824-2"
       sodipodi:cx="141.95445"
       sodipodi:cy="573.04657"
       sodipodi:rx="74.467911"
       sodipodi:ry="74.467911"
       d="m 216.42236,573.04657 c 0,41.12749 -33.34042,74.46791 -74.46791,74.46791 -41.12749,0 -74.467908,-33.34042 -74.467908,-74.46791 0,-41.12749 33.340418,-74.46791 74.467908,-74.46791 41.12749,0 74.46791,33.34042 74.46791,74.46791 z"
       transform="matrix(0.68601214,0,0,0.68601214,365.13837,81.906601)" />
    <path
       sodipodi:type="arc"
       style="opacity:0.47779996;fill:#00ff00;stroke:#000000;stroke-width:3;stroke-miterlimit:10;stroke-opacity:1;stroke-dasharray:none"
       id="path2824-0-4"
       sodipodi:cx="141.95445"
       sodipodi:cy="573.04657"
       sodipodi:rx="74.467911"
       sodipodi:ry="74.467911"
       d="m 216.42236,573.04657 c 0,41.12749 -33.34042,74.46791 -74.46791,74.46791 -41.12749,0 -74.467908,-33.34042 -74.467908,-74.46791 0,-41.12749 33.340418,-74.46791 74.467908,-74.46791 41.12749,0 74.46791,33.34042 74.46791,74.46791 z"
       transform="matrix(0.68601214,0,0,0.68601214,524.54621,81.906601)" />
    <path
       sodipodi:type="arc"
       style="opacity:0.47779996;fill:#ff00ff;stroke:#000000;stroke-width:3;stroke-miterlimit:10;stroke-opacity:1;stroke-dasharray:none"
       id="path2824-1-6"
       sodipodi:cx="141.95445"
       sodipodi:cy="573.04657"
       sodipodi:rx="74.467911"
       sodipodi:ry="74.467911"
       d="m 216.42236,573.04657 c 0,41.12749 -33.34042,74.46791 -74.46791,74.46791 -41.12749,0 -74.467908,-33.34042 -74.467908,-74.46791 0,-41.12749 33.340418,-74.46791 74.467908,-74.46791 41.12749,0 74.46791,33.34042 74.46791,74.46791 z"
       transform="matrix(0.68601214,0,0,0.68601214,205.73048,81.906601)" />
    <path
       sodipodi:type="arc"
       style="opacity:0.47779996;fill:#0000ff;stroke:#000000;stroke-width:3;stroke-miterlimit:10;stroke-opacity:1;stroke-dasharray:none"
       id="path2824-5-3"
       sodipodi:cx="141.95445"
       sodipodi:cy="573.04657"
       sodipodi:rx="74.467911"
       sodipodi:ry="74.467911"
       d="m 216.42236,573.04657 c 0,41.12749 -33.34042,74.46791 -74.46791,74.46791 -41.12749,0 -74.467908,-33.34042 -74.467908,-74.46791 0,-41.12749 33.340418,-74.46791 74.467908,-74.46791 41.12749,0 74.46791,33.34042 74.46791,74.46791 z"
       transform="matrix(0.68601214,0,0,0.68601214,46.322618,81.906601)" />
    <path
       style="fill:none;stroke:#000000;stroke-width:1px;stroke-linecap:butt;stroke-linejoin:miter;stroke-opacity:1"
       d="m 189.08397,650.72122 104.13872,19.19876"
       id="path2988"
       inkscape:connector-curvature="0" />
    <path
       style="fill:none;stroke:#000000;stroke-width:1px;stroke-linecap:butt;stroke-linejoin:miter;stroke-opacity:1"
       d="m 393.87072,677.48313 125.08282,-7.56315"
       id="path2990"
       inkscape:connector-curvature="0" />
    <path
       style="fill:none;stroke:#000000;stroke-width:1px;stroke-linecap:butt;stroke-linejoin:miter;stroke-opacity:1"
       d="m 568.98666,717.62598 7.56315,129.15528"
       id="path2992"
       inkscape:connector-curvature="0" />
  </g>
</svg>
